<?xml version="1.0" encoding="UTF-8" standalone="no"?>
<!-- Created with Inkscape (http://www.inkscape.org/) -->

<svg
   xmlns:dc="http://purl.org/dc/elements/1.1/"
   xmlns:cc="http://creativecommons.org/ns#"
   xmlns:rdf="http://www.w3.org/1999/02/22-rdf-syntax-ns#"
   xmlns:svg="http://www.w3.org/2000/svg"
   xmlns="http://www.w3.org/2000/svg"
   xmlns:sodipodi="http://sodipodi.sourceforge.net/DTD/sodipodi-0.dtd"
   xmlns:inkscape="http://www.inkscape.org/namespaces/inkscape"
   sodipodi:docname="feat_protocol.svg"
   height="210"
   id="svg7384"
   inkscape:version="0.91pre2 r13516"
   version="1.1"
   width="210">
  <metadata
     id="metadata90">
    <rdf:RDF>
      <cc:Work
         rdf:about="">
        <dc:format>image/svg+xml</dc:format>
        <dc:type
           rdf:resource="http://purl.org/dc/dcmitype/StillImage" />
        <dc:title>Gnome Symbolic Icon Theme</dc:title>
      </cc:Work>
    </rdf:RDF>
  </metadata>
  <sodipodi:namedview
     inkscape:bbox-paths="false"
     bordercolor="#666666"
     borderopacity="1"
     inkscape:current-layer="layer13"
     inkscape:cx="79.039443"
     inkscape:cy="103.21277"
     gridtolerance="10"
     inkscape:guide-bbox="true"
     guidetolerance="10"
     id="namedview88"
     inkscape:object-nodes="false"
     inkscape:object-paths="false"
     objecttolerance="10"
     pagecolor="#3a3b39"
     inkscape:pageopacity="1"
     inkscape:pageshadow="2"
     showborder="true"
     showgrid="true"
     showguides="true"
     inkscape:snap-bbox="true"
     inkscape:snap-bbox-midpoints="false"
     inkscape:snap-global="true"
     inkscape:snap-grids="true"
     inkscape:snap-nodes="false"
     inkscape:snap-others="false"
     inkscape:snap-to-guides="true"
     inkscape:window-height="1161"
     inkscape:window-maximized="1"
     inkscape:window-width="1920"
     inkscape:window-x="0"
     inkscape:window-y="0"
     inkscape:zoom="4.0455577">
    <inkscape:grid
       empspacing="2"
       enabled="true"
       id="grid4866"
       originx="-340px"
       originy="-20.999999px"
       snapvisiblegridlinesonly="true"
       spacingx="1px"
       spacingy="1px"
       type="xygrid"
       visible="true" />
  </sodipodi:namedview>
  <title
     id="title9167">Gnome Symbolic Icon Theme</title>
  <defs
     id="defs7386" />
  <g
     inkscape:groupmode="layer"
     id="layer9"
     inkscape:label="status"
     style="display:inline"
     transform="translate(-581.0002,-72)" />
  <g
     inkscape:groupmode="layer"
     id="layer10"
     inkscape:label="devices"
     transform="translate(-581.0002,-72)" />
  <g
     inkscape:groupmode="layer"
     id="layer11"
     inkscape:label="apps"
     transform="translate(-581.0002,-72)" />
  <g
     inkscape:groupmode="layer"
     id="layer13"
     inkscape:label="places"
     transform="translate(-581.0002,-72)">
    <g
       id="g5464"
       transform="matrix(9.6567245,0,0,9.6567245,-5001.6625,-1792.67)">
      <circle
         r="1.96875"
         cy="178.03125"
         cx="289.03125"
         transform="matrix(1.5079365,0,0,1.5079365,148.15963,-64.49107)"
         style="color:#000000;display:inline;overflow:visible;visibility:visible;fill:#bebebe;fill-opacity:1;fill-rule:nonzero;stroke:none;stroke-width:0.99999994;marker:none;enable-background:new"
         id="path8192"
         d="M 291,178.03125 A 1.96875,1.96875 0 0 1 289.03125,180 1.96875,1.96875 0 0 1 287.0625,178.03125 1.96875,1.96875 0 0 1 289.03125,176.0625 1.96875,1.96875 0 0 1 291,178.03125 Z" />
      <circle
         r="1.96875"
         cy="178.03125"
         cx="289.03125"
         transform="matrix(1.5079365,0,0,1.5079365,158.12818,-59.49107)"
         style="color:#000000;display:inline;overflow:visible;visibility:visible;fill:#bebebe;fill-opacity:1;fill-rule:nonzero;stroke:none;stroke-width:0.99999994;marker:none;enable-background:new"
         id="path8194"
         d="M 291,178.03125 A 1.96875,1.96875 0 0 1 289.03125,180 1.96875,1.96875 0 0 1 287.0625,178.03125 1.96875,1.96875 0 0 1 289.03125,176.0625 1.96875,1.96875 0 0 1 291,178.03125 Z" />
      <circle
         r="1.96875"
         cy="178.03125"
         cx="289.03125"
         transform="matrix(1.5079365,0,0,1.5079365,158.12818,-69.49107)"
         style="color:#000000;display:inline;overflow:visible;visibility:visible;fill:#bebebe;fill-opacity:1;fill-rule:nonzero;stroke:none;stroke-width:0.99999994;marker:none;enable-background:new"
         id="path8196"
         d="M 291,178.03125 A 1.96875,1.96875 0 0 1 289.03125,180 1.96875,1.96875 0 0 1 287.0625,178.03125 1.96875,1.96875 0 0 1 289.03125,176.0625 1.96875,1.96875 0 0 1 291,178.03125 Z" />
      <path
         style="color:#000000;font-style:normal;font-variant:normal;font-weight:normal;font-stretch:normal;font-size:medium;line-height:normal;font-family:Sans;-inkscape-font-specification:Sans;text-indent:0;text-align:start;text-decoration:none;text-decoration-line:none;letter-spacing:normal;word-spacing:normal;text-transform:none;direction:ltr;block-progression:tb;writing-mode:lr-tb;baseline-shift:baseline;text-anchor:start;display:inline;overflow:visible;visibility:visible;fill:#bebebe;fill-opacity:1;stroke:none;stroke-width:2;marker:none;enable-background:accumulate"
         id="path8198"
         d="m 593.625,198.15625 -10.0625,4.875 -1.8125,0.90625 1.8125,0.90625 10.03125,5.0625 0.90625,-1.8125 -8.21875,-4.15625 8.21875,-4 -0.875,-1.78125 z"
         inkscape:connector-curvature="0" />
    </g>
  </g>
  <g
     inkscape:groupmode="layer"
     id="layer14"
     inkscape:label="mimetypes"
     transform="translate(-581.0002,-72)" />
  <g
     inkscape:groupmode="layer"
     id="layer15"
     inkscape:label="emblems"
     style="display:inline"
     transform="translate(-581.0002,-72)" />
  <g
     inkscape:groupmode="layer"
     id="g71291"
     inkscape:label="emotes"
     style="display:inline"
     transform="translate(-581.0002,-72)" />
  <g
     inkscape:groupmode="layer"
     id="g4953"
     inkscape:label="categories"
     style="display:inline"
     transform="translate(-581.0002,-72)" />
  <g
     inkscape:groupmode="layer"
     id="layer12"
     inkscape:label="actions"
     style="display:inline"
     transform="translate(-581.0002,-72)" />
</svg>
